<?xml version="1.0" standalone="no"?>
<!DOCTYPE svg PUBLIC "-//W3C//DTD SVG 20010904//EN"
 "http://www.w3.org/TR/2001/REC-SVG-20010904/DTD/svg10.dtd">
<svg version="1.0" xmlns="http://www.w3.org/2000/svg"
 width="225.000000pt" height="225.000000pt" viewBox="0 0 225.000000 225.000000"
 preserveAspectRatio="xMidYMid meet">
<metadata>
Created by potrace 1.16, written by Peter Selinger 2001-2019
</metadata>
<g transform="translate(0.000000,225.000000) scale(0.100000,-0.100000)"
fill="#000000" stroke="none">
<path d="M225 2125 c-49 -17 -90 -62 -104 -112 -15 -54 -15 -1723 0 -1778 14
-50 64 -100 114 -114 56 -15 1724 -15 1780 0 50 14 100 64 114 114 15 56 15
1724 0 1780 -14 50 -64 100 -114 114 -28 8 -304 11 -895 11 -711 -1 -862 -3
-895 -15z m1780 -120 l25 -24 0 -856 0 -856 -25 -24 -24 -25 -856 0 -856 0
-24 25 -25 24 0 856 0 856 25 24 24 25 856 0 856 0 24 -25z"/>
<path d="M978 1900 c-105 -18 -269 -80 -310 -117 -10 -9 -18 -26 -18 -37 0
-21 157 -304 188 -338 21 -25 40 -23 118 14 58 28 83 33 155 36 76 3 94 1 150
-23 35 -15 76 -32 92 -38 20 -8 32 -9 45 -1 29 18 203 326 200 354 -4 31 -47
61 -146 99 -145 56 -328 75 -474 51z m94 -172 c3 -66 5 -74 29 -87 24 -13 29
-13 53 2 24 16 26 23 26 88 l0 71 43 -7 c70 -11 157 -34 203 -55 l44 -19 -56
-98 c-31 -54 -57 -99 -58 -100 0 -1 -32 9 -71 23 -53 18 -91 23 -160 23 -69 0
-107 -5 -160 -23 -38 -14 -71 -24 -71 -23 -1 1 -26 46 -57 99 l-56 98 29 15
c27 14 149 50 200 58 61 10 59 12 62 -65z"/>
<path d="M455 1502 c-83 -39 -150 -149 -168 -276 -9 -60 -7 -87 11 -177 12
-59 38 -158 58 -220 19 -63 51 -178 70 -257 39 -165 59 -210 111 -249 32 -25
45 -28 108 -28 81 0 123 21 166 83 35 52 34 173 -4 297 -38 128 -48 215 -37
316 14 123 12 228 -6 290 -25 86 -80 176 -125 206 -53 35 -128 41 -184 15z
m131 -117 c35 -35 75 -127 83 -189 3 -28 0 -103 -6 -166 -16 -139 -7 -229 36
-384 39 -137 40 -188 6 -221 -32 -33 -83 -34 -113 -2 -15 15 -31 64 -52 152
-17 72 -46 180 -65 240 -59 193 -78 278 -79 355 -1 66 3 84 32 143 47 96 107
123 158 72z"/>
<path d="M1629 1497 c-50 -26 -97 -91 -131 -177 -26 -68 -34 -191 -20 -316 13
-109 3 -197 -35 -326 -38 -127 -39 -248 -4 -300 43 -62 85 -83 166 -83 63 0
76 3 108 28 52 39 72 84 111 249 19 79 51 194 70 257 20 62 46 161 58 220 18
90 20 117 11 177 -32 220 -189 347 -334 271z m131 -102 c19 -10 40 -37 62 -82
53 -108 44 -207 -43 -482 -16 -51 -45 -159 -65 -239 -24 -101 -41 -153 -56
-169 -30 -32 -81 -31 -113 2 -34 33 -33 84 6 221 44 156 52 245 36 383 -15
135 -9 196 29 281 41 93 82 117 144 85z"/>
</g>
</svg>
